# xmcd
#
# Track frame offsets:
#	150
#	15376
#	48607
#	65875
#	101553
#	123333
#	146751
#	161746
#	203980
#
# Disc length: 3053 seconds
#
# Revision: 1
# Processed by: cddbd v1.5.2PL0 Copyright (c) Steve Scherf et al.
# Submitted via: audiograbber 1.83.01
#
DISCID=840beb09
DTITLE=Grateful Dead - 74-05-12 University of Nevada, Reno NV
DYEAR=1900
DGENRE=
TTITLE0=Promised Land
TTITLE1=Sugaree
TTITLE2=Mexicali Blues
TTITLE3=Tennessee Jed
TTITLE4=Jack Straw
TTITLE5=Brown Eyed Women
TTITLE6=BIODTL
TTITLE7=China Cat Sunflower
TTITLE8=I Know You Rider
EXTD=
EXTT0=
EXTT1=
EXTT2=
EXTT3=
EXTT4=
EXTT5=
EXTT6=
EXTT7=
EXTT8=
PLAYORDER=
